<?xml version="1.0" encoding="UTF-8"?>
<svg width="1200pt" height="1200pt" version="1.1" viewBox="0 0 1200 1200" xmlns="http://www.w3.org/2000/svg">
 <path d="m894.32 103.73c-161.63-67.875-427.08-67.875-588.66 0-261.61 109.88-7.8281 254.39 294.32 254.39 302.15 0 555.98-144.52 294.32-254.39zm108.89 206.21v158.53c0 37.359-41.578 73.5-108.84 101.77-161.58 67.875-427.08 67.875-588.66 0-67.266-28.266-108.84-64.406-108.84-101.77l-0.046876-158.53c170.63 140.81 635.72 140.81 806.39 0zm0 263.06c-170.68 140.76-635.72 140.76-806.39 0v158.53c0 37.359 41.625 73.5 108.84 101.77 161.63 67.875 427.08 67.875 588.66 0 67.266-28.266 108.89-64.406 108.89-101.77zm0 263.02v158.53c0 37.359-41.625 73.5-108.89 101.77-161.63 67.875-427.08 67.875-588.66 0-67.266-28.266-108.84-64.406-108.84-101.77v-158.53c170.63 140.76 635.68 140.81 806.39 0z" fill="#676767" fill-rule="evenodd"/>
</svg>
