<?xml version="1.0" encoding="UTF-8"?>
<svg id="Layer_2" data-name="Layer 2" xmlns="http://www.w3.org/2000/svg" viewBox="0 0 125.35 161.35">
  <g id="Layer_1-2" data-name="Layer 1" focusable="false">
    <rect width="125.35" height="161.35" fill="none"/>
    <path d="M97.05,53.67v7.37c0,6.78-15.39,12.28-34.37,12.28s-34.37-5.49-34.37-12.28v-7.37c0-6.78,15.39-12.28,34.37-12.28s34.37,5.49,34.37,12.28ZM88.64,74.34c3.19-1.14,6.12-2.59,8.41-4.39v15.64c0,6.78-15.39,12.28-34.37,12.28s-34.37-5.49-34.37-12.28v-15.64c2.29,1.81,5.22,3.25,8.41,4.39,6.89,2.46,16.07,3.88,25.96,3.88s19.07-1.43,25.96-3.88ZM28.3,94.5c2.29,1.81,5.22,3.25,8.41,4.39,6.89,2.46,16.07,3.88,25.96,3.88s19.07-1.43,25.96-3.88c3.19-1.14,6.12-2.59,8.41-4.39v13.18c0,6.78-15.39,12.28-34.37,12.28s-34.37-5.49-34.37-12.28v-13.18Z" fill="#a7a7a7"/>
  </g>
</svg>
