<?xml version="1.0" encoding="UTF-8"?>
<svg width="1200pt" height="1200pt" version="1.1" viewBox="0 0 1200 1200" xmlns="http://www.w3.org/2000/svg">
 <path d="m824.78 95.433c-148.7-62.365-393.04-62.365-541.74 0-240.68 101.1-7.2 234.28 270.87 234.28 278.05 0 511.58-133.18 270.87-234.28zm100.34 189.79v145.85c0 34.37-38.25 67.66-100.3 93.63-148.66 62.365-393.04 62.365-541.74 0-61.88-26.02-100.3-59.31-100.3-93.63l-0.043-145.85c157.02 129.54 585.16 129.54 742.18 0zm0 242.02c-157.07 129.5-585.16 129.5-742.18 0v145.85c0 34.37 38.27 67.66 100.3 93.63 148.7 62.365 393.04 62.365 541.74 0 61.88-26.02 100.34-59.31 100.34-93.63zm0 242.02v145.85c0 34.37-38.27 67.66-100.34 93.63-148.7 62.365-393.04 62.365-541.74 0-61.88-26.02-100.3-59.31-100.3-93.63v-145.85c157.02 129.5 585.16 129.54 742.18 0z" fill="#676767" fill-rule="evenodd"/>
</svg>
