<?xml version="1.0" encoding="utf-8"?>
<svg version="1.1" id="Layer_1" focusable="false" xmlns="http://www.w3.org/2000/svg" xmlns:xlink="http://www.w3.org/1999/xlink" x="0px" y="0px" width="125.348px" height="161.348px" viewBox="62.674 80.674 125.348 161.348" enable-background="new 62.674 80.674 125.348 161.348" xml:space="preserve">
 <path fill="#43515F" d="M116.475,154.141c10.697,0,19.369-8.672,19.369-19.369c0-10.696-8.672-19.369-19.369-19.369 c-10.696,0-19.369,8.672-19.369,19.369S105.779,154.141,116.475,154.141z M134.861,158.507h-7.414 c-2.982,1.37-6.306,2.15-9.809,2.15c-3.5,0-6.807-0.78-9.809-2.15h-7.414c-9.507,0-17.203,7.696-17.203,17.203v2.15 c0,3.564,2.89,6.453,6.453,6.453h55.945c3.564,0,6.453-2.889,6.453-6.453v-2.15C152.064,166.203,144.368,158.507,134.861,158.507z"/>
</svg>
