<?xml version="1.0" encoding="UTF-8"?>
<svg width="1200pt" height="1200pt" version="1.1" viewBox="0 0 1200 1200" xmlns="http://www.w3.org/2000/svg">
 <path d="m389.94 73.82c-28.33 0-51.35 23.02-51.35 51.35v6.07h-11.38c-30.23 0-54.76 24.66-54.76 54.88 0 6.95 5.69 12.64 12.64 12.64h209.66c7.09 0 12.64-5.69 12.64-12.64 0-30.22-24.53-54.88-54.76-54.88h-11.38v-6.07c0-28.33-23.02-51.35-51.35-51.35z" fill="#676767"/>
 <path d="m186.19 173.48c-6.96 0-12.64 5.56-12.64 12.64v507.41c0 6.96 5.69 12.64 12.64 12.64h407.62c6.96 0 12.64-5.69 12.64-12.64l-0.003-507.41c0-7.08-5.69-12.64-12.64-12.64h-62.22c0.76 4.05 1.14 8.35 1.14 12.64 0 20.87-17.08 37.94-37.94 37.94h-209.68c-20.87 0-37.94-17.08-37.94-37.94 0-4.29 0.38-8.59 1.14-12.64zm204.04 139.92c74.78 0 135.74 60.94 135.74 135.74 0 74.78-60.94 135.74-135.74 135.74-74.78 0-135.74-60.96-135.74-135.74 0-74.78 60.96-135.74 135.74-135.74z" fill="#676767"/>
 <path d="m390.03 559.38c60.84 0 110.34-49.5 110.34-110.34 0-60.84-49.5-110.34-110.34-110.34-60.84 0-110.34 49.5-110.34 110.34 0 60.84 49.5 110.34 110.34 110.34zm-57.66-116.05c4.94-4.94 12.94-4.94 17.88 0l21.39 21.39 58.17-58.18c4.94-4.94 12.94-4.94 17.88 0 4.94 4.93 4.94 12.94 0 17.88l-67.11 67.12c-2.37 2.37-5.58 3.71-8.94 3.71s-6.57-1.34-8.94-3.71l-30.34-30.34c-4.94-4.94-4.94-12.94 0.003-17.88z" fill="#676767"/>
</svg>
