<?xml version="1.0" encoding="UTF-8"?>
<svg width="1200pt" height="1200pt" version="1.1" viewBox="0 0 1200 1200" xmlns="http://www.w3.org/2000/svg">
 <path d="m581.46 67.434c-104.22-43.8-275.46-43.8-379.68 0-168.96 71.019-5.05 164.74 189.84 164.74 194.89 0 358.8-93.721 189.84-164.74zm70.32 133.19v102.29c0 24.13-26.79 47.48-70.26 65.74-104.01 43.8-275.46 43.8-379.68 0-43.37-18.26-70.26-41.61-70.26-65.74l-0.03-102.29c110 90.98 410.15 90.98 520.22 0zm0 170.03c-110.04 90.88-410.15 90.88-520.22 0v102.29c0 24.13 26.81 47.48 70.26 65.74 104.22 43.8 275.46 43.8 379.68 0 43.37-18.26 70.32-41.61 70.32-65.74zm0 170.03v102.29c0 24.13-26.81 47.48-70.32 65.74-104.22 43.8-275.46 43.8-379.68 0-43.37-18.26-70.26-41.61-70.26-65.74v-102.29c110 90.88 410.15 90.98 520.22 0z" fill="#676767" fill-rule="evenodd"/>
</svg>
