<?xml version="1.0" encoding="UTF-8"?>
<svg id="Layer_2" data-name="Layer 2" xmlns="http://www.w3.org/2000/svg" viewBox="0 0 125.35 161.35">
  <g id="Layer_1-2" data-name="Layer 1" focusable="false">
    <rect width="125.35" height="161.35" fill="none"/>
    <path d="M62.67,85.46c11.9,0,21.56-9.66,21.56-21.56s-9.66-21.56-21.56-21.56-21.56,9.66-21.56,21.56,9.66,21.56,21.56,21.56ZM81.84,90.25h-8.25c-3.32,1.53-7.02,2.4-10.91,2.4s-7.57-.87-10.91-2.4h-8.25c-10.58,0-19.16,8.58-19.16,19.16v2.4c0,3.97,3.22,7.19,7.19,7.19h62.27c3.97,0,7.19-3.22,7.19-7.19v-2.4c0-10.58-8.58-19.16-19.16-19.16Z" fill="#a7a7a7"/>
  </g>
</svg>