<?xml version="1.0" encoding="UTF-8"?>
<svg width="1200pt" height="1200pt" version="1.1" viewBox="0 0 1200 1200" xmlns="http://www.w3.org/2000/svg">
 <path d="m599.9 113.57c-43.582 0-78.996 35.414-78.996 78.996v9.3438h-17.512c-46.504 0-84.25 37.941-84.25 84.441 0 10.699 8.7578 19.457 19.457 19.457h322.6c10.898 0 19.457-8.7539 19.457-19.457 0-46.5-37.746-84.441-84.25-84.441h-17.512v-9.3438c0-43.586-35.414-78.996-78.996-78.996z" fill="#676767"/>
 <path d="m286.45 266.89c-10.703 0-19.457 8.5625-19.457 19.457v780.63c0 10.703 8.7539 19.457 19.457 19.457h627.11c10.703 0 19.457-8.7539 19.457-19.457l-0.003906-780.63c0-10.895-8.7539-19.457-19.457-19.457h-95.73c1.168 6.2266 1.75 12.844 1.75 19.457 0 32.105-26.266 58.371-58.371 58.371h-322.61c-32.105 0-58.371-26.266-58.371-58.371 0-6.6133 0.58594-13.23 1.75-19.457zm313.61 215.26c115.05 0 208.67 93.617 208.67 208.67 0 115.05-93.617 208.67-208.67 208.67-115.05 0-208.67-93.621-208.67-208.68 0-115.05 93.621-208.67 208.67-208.67z" fill="#676767"/>
 <path d="m600.05 860.58c93.602 0 169.76-76.156 169.76-169.76 0-93.598-76.156-169.76-169.76-169.76-93.602 0-169.76 76.156-169.76 169.76 0 93.602 76.16 169.76 169.76 169.76zm-88.715-178.54c7.6016-7.6016 19.914-7.6016 27.516 0l32.91 32.91 89.496-89.516c7.6016-7.6016 19.914-7.6016 27.512 0 7.6016 7.5977 7.6016 19.914 0 27.512l-103.25 103.27c-3.6484 3.6484-8.5859 5.6992-13.758 5.6992-5.168 0-10.109-2.0508-13.758-5.6992l-46.668-46.672c-7.5977-7.5938-7.5977-19.906 0.003907-27.508z" fill="#676767"/>
</svg>
