<?xml version="1.0" encoding="UTF-8"?>
<svg id="Layer_2" data-name="Layer 2" xmlns="http://www.w3.org/2000/svg" viewBox="0 0 125.35 161.35">
  <g id="Layer_1-2" data-name="Layer 1" focusable="false">
    <rect width="125.35" height="161.35" fill="none"/>
    <g>
      <path d="M62.66,37.41c-3.88,0-7.03,3.15-7.03,7.03v.83h-1.56c-4.14,0-7.49,3.37-7.49,7.51,0,.95.78,1.73,1.73,1.73h28.69c.97,0,1.73-.78,1.73-1.73,0-4.14-3.36-7.51-7.49-7.51h-1.56v-.83c0-3.88-3.15-7.03-7.03-7.03h0Z" fill="#a7a7a7"/>
      <path d="M34.79,51.05c-.95,0-1.73.76-1.73,1.73v69.43c0,.95.78,1.73,1.73,1.73h55.77c.95,0,1.73-.78,1.73-1.73V52.78c0-.97-.78-1.73-1.73-1.73h-8.51c.1.55.16,1.14.16,1.73,0,2.86-2.34,5.19-5.19,5.19h-28.69c-2.86,0-5.19-2.34-5.19-5.19,0-.59.05-1.18.16-1.73h-8.5ZM62.68,70.19c10.23,0,18.56,8.33,18.56,18.56s-8.33,18.56-18.56,18.56-18.56-8.33-18.56-18.56,8.33-18.56,18.56-18.56h0Z" fill="#a7a7a7"/>
      <path d="M62.68,103.85c8.32,0,15.1-6.77,15.1-15.1s-6.77-15.1-15.1-15.1-15.1,6.77-15.1,15.1,6.77,15.1,15.1,15.1ZM54.79,87.97c.68-.68,1.77-.68,2.45,0l2.93,2.93,7.96-7.96c.68-.68,1.77-.68,2.45,0,.68.68.68,1.77,0,2.45l-9.18,9.18c-.32.32-.76.51-1.22.51s-.9-.18-1.22-.51l-4.15-4.15c-.68-.68-.68-1.77,0-2.45h0Z" fill="#a7a7a7"/>
    </g>
  </g>
</svg>